<?xml version="1.0" encoding="iso-8859-1"?>
<!-- Uploaded to: SVG Repo, www.svgrepo.com, Generator: SVG Repo Mixer Tools -->
<!DOCTYPE svg PUBLIC "-//W3C//DTD SVG 1.1//EN" "http://www.w3.org/Graphics/SVG/1.1/DTD/svg11.dtd">
<svg fill="#000000" version="1.1" id="Capa_1" xmlns="http://www.w3.org/2000/svg" xmlns:xlink="http://www.w3.org/1999/xlink" 
	 width="800px" height="800px" viewBox="0 0 542.196 542.196"
	 xml:space="preserve">
<g>
	<g>
		<path d="M411.316,21.42c-65.341-59.899-140.225,24.844-140.225,24.844h-0.545c0,0-74.875-84.743-140.225-24.844
			c-63.285,58.016-11.379,187.444,126.742,250.327c-2.008,3.672-2.037,4.877-2.037,4.877l-10.079,27.502
			c-4.829,8.798-0.918,29.013,8.73,29.013c3.146,0,6.063,0,8.616,0c0.832,71.738-11.743,182.022,60.943,208.29
			c14.478,5.231,20.664-17.796,6.33-22.969c-54.229-19.604-44.246-122.983-43.873-185.321h2.917c9.648,0,13.56-21.611,8.73-30.409
			c-4.819-8.797-9.257-22.165-9.257-22.165l-2.592-6.714C424.962,211.36,474.916,79.723,411.316,21.42z"/>
	</g>
</g>
</svg>